<svg xmlns="http://www.w3.org/2000/svg" width="24" height="24" fill="none" viewBox="0 0 24 24">
  <path fill="currentColor" fill-rule="evenodd" d="M12.7895 14.25C14.5904 14.25 16.1376 15.5305 16.474 17.2998L16.6996 18.4863C17.0217 20.1807 15.7222 21.75 13.9975 21.75H4.00138C2.27693 21.7497 0.978179 20.1805 1.3002 18.4863L1.52579 17.2998C1.86212 15.5306 3.40858 14.2502 5.20938 14.25H12.7895ZM5.20938 15.75C4.12898 15.7502 3.20121 16.5186 2.99942 17.5801L2.77384 18.7666C2.62751 19.5366 3.21767 20.2497 4.00138 20.25H13.9975C14.7814 20.25 15.3723 19.5367 15.226 18.7666L15.0004 17.5801C14.7986 16.5185 13.87 15.75 12.7895 15.75H5.20938Z" clip-rule="evenodd"/>
  <path fill="currentColor" d="M18.432 14.9072C18.535 14.5063 18.9441 14.2646 19.3451 14.3672C20.7388 14.7246 21.8397 15.8661 22.1039 17.3379L22.3149 18.5137C22.6136 20.1779 21.3554 21.709 19.6752 21.749C19.2614 21.7586 18.9177 21.4313 18.9076 21.0176C18.8978 20.6037 19.2253 20.2602 19.6391 20.25C20.402 20.2319 20.974 19.5355 20.8383 18.7793L20.6274 17.6025C20.469 16.7203 19.8087 16.0348 18.9721 15.8203C18.5713 15.7172 18.3293 15.3082 18.432 14.9072Z"/>
  <path fill="currentColor" fill-rule="evenodd" d="M8.99942 2.25C11.6228 2.25 13.7494 4.37665 13.7494 7C13.7494 9.62335 11.6228 11.75 8.99942 11.75C6.37627 11.7498 4.24942 9.62321 4.24942 7C4.24942 4.37679 6.37627 2.25023 8.99942 2.25ZM8.99942 3.75C7.20469 3.75023 5.74942 5.20522 5.74942 7C5.74942 8.79478 7.20469 10.2498 8.99942 10.25C10.7943 10.25 12.2494 8.79493 12.2494 7C12.2494 5.20507 10.7943 3.75 8.99942 3.75Z" clip-rule="evenodd"/>
  <path fill="currentColor" d="M15.31 2.94238C15.4172 2.54248 15.829 2.3051 16.2289 2.41211C17.2388 2.68275 18.1315 3.27896 18.768 4.1084C19.4044 4.93783 19.7493 5.95455 19.7494 7C19.7493 8.0453 19.4042 9.06224 18.768 9.8916C18.1315 10.7209 17.2387 11.3183 16.2289 11.5889C15.8292 11.6957 15.4174 11.4581 15.31 11.0586C15.2028 10.6587 15.4406 10.2472 15.8402 10.1396C16.5311 9.95454 17.142 9.54584 17.5775 8.97852C18.0129 8.41108 18.2493 7.71519 18.2494 7C18.2493 6.28475 18.0129 5.58895 17.5775 5.02148C17.142 4.45408 16.5312 4.04646 15.8402 3.86133C15.4406 3.75399 15.2032 3.34216 15.31 2.94238Z"/>
</svg>
