<svg xmlns="http://www.w3.org/2000/svg" viewBox="0 0 48 48"><g data-name="Layer 2"><path d="M19.87,18.92a.91.91,0,0,0,.79,0,9.73,9.73,0,0,0,3.68-2.84c.63.39,1.17.68,1.45.82a1,1,0,0,0,.91,0c7.53-3.49,6.64-8.83,3.44-10.14a3.87,3.87,0,0,0-3.89.55,3.84,3.84,0,0,0-6.09,4.05C16.8,9.05,11.67,14.8,19.87,18.92Zm6-10.56a.53.53,0,0,0,.72,0,2.85,2.85,0,0,1,4.89,2c0,3.1-4.35,5.27-5.26,5.67a16,16,0,0,1-1.42-.81,3,3,0,0,0-3.72-4.16A2.84,2.84,0,0,1,25.89,8.36Zm-6,4.12a.51.51,0,0,0,.71,0,2,2,0,0,1,3.46,1.41c0,2.24-3.21,3.83-3.77,4.13C13.19,14.44,17.72,10.24,19.92,12.48Z"/><path d="M23.5,20.76a11.5,11.5,0,1,0,0,19,11.5,11.5,0,1,0,0-19Zm-17,9.48A10.52,10.52,0,0,1,22.66,21.4a11.27,11.27,0,0,0-1.47,1.46,8.5,8.5,0,1,0,2.92,2.76,7.33,7.33,0,0,1,1.47-1.42,10.5,10.5,0,1,1-19.08,6Zm14.08-6.57a11.44,11.44,0,0,0,0,13.16,7.49,7.49,0,1,1,0-13.16Zm2.91,2.86a7.39,7.39,0,0,1,0,7.43A7.39,7.39,0,0,1,23.49,26.53Zm2.93-2.88a7.49,7.49,0,1,1,0,13.16A11.44,11.44,0,0,0,26.42,23.65ZM24.34,39.08a10.68,10.68,0,0,0,1.47-1.46,8.5,8.5,0,1,0-2.92-2.75,7.61,7.61,0,0,1-1.47,1.42,10.5,10.5,0,1,1,2.92,2.79Z"/></g></svg>